<mxfile host="65bd71144e">
    <diagram id="wkf0cXrrHEmZgcqCS4pQ" name="第 1 页">
        <mxGraphModel dx="1847" dy="1961" grid="1" gridSize="10" guides="1" tooltips="1" connect="1" arrows="1" fold="1" page="1" pageScale="1" pageWidth="827" pageHeight="1169" math="0" shadow="0">
            <root>
                <mxCell id="0"/>
                <mxCell id="1" parent="0"/>
                <mxCell id="2" value="" style="edgeStyle=none;html=1;fontSize=8;" parent="1" source="3" target="5" edge="1">
                    <mxGeometry relative="1" as="geometry"/>
                </mxCell>
                <mxCell id="3" value="&lt;font style=&quot;font-size: 15px;&quot;&gt;1&lt;/font&gt;" style="shape=internalStorage;whiteSpace=wrap;html=1;backgroundOutline=1;strokeColor=default;fontSize=8;dx=60;dy=0;" parent="1" vertex="1">
                    <mxGeometry x="-670" y="-9" width="80" height="50" as="geometry"/>
                </mxCell>
                <mxCell id="4" value="" style="edgeStyle=none;html=1;fontSize=8;" parent="1" source="5" target="7" edge="1">
                    <mxGeometry relative="1" as="geometry"/>
                </mxCell>
                <mxCell id="5" value="&lt;font style=&quot;font-size: 15px;&quot;&gt;2&lt;/font&gt;" style="shape=internalStorage;whiteSpace=wrap;html=1;backgroundOutline=1;strokeColor=default;fontSize=8;dx=60;dy=0;" parent="1" vertex="1">
                    <mxGeometry x="-550" y="-9" width="80" height="50" as="geometry"/>
                </mxCell>
                <mxCell id="6" value="" style="edgeStyle=none;html=1;fontSize=15;" parent="1" source="7" target="9" edge="1">
                    <mxGeometry relative="1" as="geometry"/>
                </mxCell>
                <mxCell id="7" value="&lt;font style=&quot;font-size: 15px;&quot;&gt;3&lt;/font&gt;" style="shape=internalStorage;whiteSpace=wrap;html=1;backgroundOutline=1;strokeColor=default;fontSize=8;dx=60;dy=0;" parent="1" vertex="1">
                    <mxGeometry x="-430" y="-9" width="80" height="50" as="geometry"/>
                </mxCell>
                <mxCell id="8" value="" style="edgeStyle=none;html=1;fontSize=15;" parent="1" source="9" target="10" edge="1">
                    <mxGeometry relative="1" as="geometry"/>
                </mxCell>
                <mxCell id="9" value="&lt;font style=&quot;font-size: 15px;&quot;&gt;5&lt;/font&gt;" style="shape=internalStorage;whiteSpace=wrap;html=1;backgroundOutline=1;strokeColor=default;fontSize=8;dx=60;dy=0;" parent="1" vertex="1">
                    <mxGeometry x="-310" y="-9" width="80" height="50" as="geometry"/>
                </mxCell>
                <mxCell id="10" value="&lt;font style=&quot;font-size: 15px;&quot;&gt;null&lt;/font&gt;" style="shape=internalStorage;whiteSpace=wrap;html=1;backgroundOutline=1;strokeColor=default;fontSize=8;dx=80;dy=0;" parent="1" vertex="1">
                    <mxGeometry x="-190" y="-9" width="80" height="50" as="geometry"/>
                </mxCell>
                <mxCell id="12" value="" style="edgeStyle=none;html=1;fontSize=15;" parent="1" source="13" target="3" edge="1">
                    <mxGeometry relative="1" as="geometry"/>
                </mxCell>
                <mxCell id="13" value="&lt;font style=&quot;font-size: 15px; font-weight: normal;&quot;&gt;head&lt;/font&gt;" style="text;strokeColor=none;fillColor=none;html=1;fontSize=24;fontStyle=1;verticalAlign=middle;align=right;" parent="1" vertex="1">
                    <mxGeometry x="-760" y="-4" width="51" height="40" as="geometry"/>
                </mxCell>
                <mxCell id="86" value="" style="edgeStyle=none;html=1;entryX=0.5;entryY=0;entryDx=0;entryDy=0;" edge="1" parent="1" source="85" target="3">
                    <mxGeometry relative="1" as="geometry"/>
                </mxCell>
                <mxCell id="85" value="&lt;font style=&quot;font-size: 15px; font-weight: normal;&quot;&gt;begin&lt;/font&gt;" style="text;strokeColor=none;fillColor=none;html=1;fontSize=24;fontStyle=1;verticalAlign=middle;align=center;" vertex="1" parent="1">
                    <mxGeometry x="-679" y="-64" width="100" height="40" as="geometry"/>
                </mxCell>
                <mxCell id="89" value="" style="edgeStyle=none;html=1;entryX=0.5;entryY=0;entryDx=0;entryDy=0;" edge="1" parent="1" source="87" target="5">
                    <mxGeometry relative="1" as="geometry">
                        <mxPoint x="-509" y="-144" as="targetPoint"/>
                    </mxGeometry>
                </mxCell>
                <mxCell id="87" value="&lt;font style=&quot;font-size: 15px; font-weight: normal;&quot;&gt;end&lt;br&gt;&lt;/font&gt;" style="text;strokeColor=none;fillColor=none;html=1;fontSize=24;fontStyle=1;verticalAlign=middle;align=center;" vertex="1" parent="1">
                    <mxGeometry x="-559" y="-64" width="100" height="40" as="geometry"/>
                </mxCell>
                <mxCell id="105" value="" style="edgeStyle=none;html=1;entryX=0;entryY=0.5;entryDx=0;entryDy=0;" edge="1" parent="1" source="91" target="95">
                    <mxGeometry relative="1" as="geometry"/>
                </mxCell>
                <mxCell id="91" value="&lt;font style=&quot;font-size: 15px;&quot;&gt;1&lt;/font&gt;" style="shape=internalStorage;whiteSpace=wrap;html=1;backgroundOutline=1;strokeColor=default;fontSize=8;dx=60;dy=0;" vertex="1" parent="1">
                    <mxGeometry x="-670" y="135" width="80" height="50" as="geometry"/>
                </mxCell>
                <mxCell id="106" value="" style="edgeStyle=none;html=1;entryX=0;entryY=0.5;entryDx=0;entryDy=0;exitX=1;exitY=0.5;exitDx=0;exitDy=0;" edge="1" parent="1" source="93" target="95">
                    <mxGeometry relative="1" as="geometry"/>
                </mxCell>
                <mxCell id="93" value="&lt;font style=&quot;font-size: 15px;&quot;&gt;2&lt;/font&gt;" style="shape=internalStorage;whiteSpace=wrap;html=1;backgroundOutline=1;strokeColor=default;fontSize=8;dx=60;dy=0;" vertex="1" parent="1">
                    <mxGeometry x="-553" y="100" width="80" height="50" as="geometry"/>
                </mxCell>
                <mxCell id="94" value="" style="edgeStyle=none;html=1;fontSize=15;" edge="1" parent="1" source="95" target="97">
                    <mxGeometry relative="1" as="geometry"/>
                </mxCell>
                <mxCell id="95" value="&lt;font style=&quot;font-size: 15px;&quot;&gt;3&lt;/font&gt;" style="shape=internalStorage;whiteSpace=wrap;html=1;backgroundOutline=1;strokeColor=default;fontSize=8;dx=60;dy=0;" vertex="1" parent="1">
                    <mxGeometry x="-430" y="135" width="80" height="50" as="geometry"/>
                </mxCell>
                <mxCell id="96" value="" style="edgeStyle=none;html=1;fontSize=15;" edge="1" parent="1" source="97" target="98">
                    <mxGeometry relative="1" as="geometry"/>
                </mxCell>
                <mxCell id="97" value="&lt;font style=&quot;font-size: 15px;&quot;&gt;5&lt;/font&gt;" style="shape=internalStorage;whiteSpace=wrap;html=1;backgroundOutline=1;strokeColor=default;fontSize=8;dx=60;dy=0;" vertex="1" parent="1">
                    <mxGeometry x="-310" y="135" width="80" height="50" as="geometry"/>
                </mxCell>
                <mxCell id="98" value="&lt;font style=&quot;font-size: 15px;&quot;&gt;null&lt;/font&gt;" style="shape=internalStorage;whiteSpace=wrap;html=1;backgroundOutline=1;strokeColor=default;fontSize=8;dx=80;dy=0;" vertex="1" parent="1">
                    <mxGeometry x="-190" y="135" width="80" height="50" as="geometry"/>
                </mxCell>
                <mxCell id="99" value="" style="edgeStyle=none;html=1;fontSize=15;" edge="1" parent="1" source="100" target="91">
                    <mxGeometry relative="1" as="geometry"/>
                </mxCell>
                <mxCell id="100" value="&lt;font style=&quot;font-size: 15px; font-weight: normal;&quot;&gt;head&lt;/font&gt;" style="text;strokeColor=none;fillColor=none;html=1;fontSize=24;fontStyle=1;verticalAlign=middle;align=right;" vertex="1" parent="1">
                    <mxGeometry x="-760" y="140" width="51" height="40" as="geometry"/>
                </mxCell>
                <mxCell id="101" value="" style="edgeStyle=none;html=1;entryX=0.5;entryY=0;entryDx=0;entryDy=0;" edge="1" parent="1" source="102" target="91">
                    <mxGeometry relative="1" as="geometry"/>
                </mxCell>
                <mxCell id="102" value="&lt;font style=&quot;font-size: 15px; font-weight: normal;&quot;&gt;begin&lt;/font&gt;" style="text;strokeColor=none;fillColor=none;html=1;fontSize=24;fontStyle=1;verticalAlign=middle;align=center;" vertex="1" parent="1">
                    <mxGeometry x="-679" y="80" width="100" height="40" as="geometry"/>
                </mxCell>
                <mxCell id="103" value="" style="edgeStyle=none;html=1;entryX=1;entryY=0.5;entryDx=0;entryDy=0;" edge="1" parent="1" source="104" target="93">
                    <mxGeometry relative="1" as="geometry">
                        <mxPoint x="-510" y="-60" as="targetPoint"/>
                    </mxGeometry>
                </mxCell>
                <mxCell id="104" value="&lt;font style=&quot;font-size: 15px; font-weight: normal;&quot;&gt;end&lt;br&gt;&lt;/font&gt;" style="text;strokeColor=none;fillColor=none;html=1;fontSize=24;fontStyle=1;verticalAlign=middle;align=center;" vertex="1" parent="1">
                    <mxGeometry x="-433" y="90" width="39" height="40" as="geometry"/>
                </mxCell>
                <mxCell id="107" value="begin.next = end.next" style="text;html=1;align=center;verticalAlign=middle;resizable=0;points=[];autosize=1;strokeColor=none;fillColor=none;" vertex="1" parent="1">
                    <mxGeometry x="-579" y="185" width="140" height="30" as="geometry"/>
                </mxCell>
                <mxCell id="108" value="" style="edgeStyle=none;html=1;entryX=0;entryY=0.5;entryDx=0;entryDy=0;" edge="1" parent="1" source="109" target="113">
                    <mxGeometry relative="1" as="geometry"/>
                </mxCell>
                <mxCell id="109" value="&lt;font style=&quot;font-size: 15px;&quot;&gt;1&lt;/font&gt;" style="shape=internalStorage;whiteSpace=wrap;html=1;backgroundOutline=1;strokeColor=default;fontSize=8;dx=60;dy=0;" vertex="1" parent="1">
                    <mxGeometry x="-669" y="309" width="80" height="50" as="geometry"/>
                </mxCell>
                <mxCell id="110" value="" style="edgeStyle=none;html=1;entryX=0.5;entryY=0;entryDx=0;entryDy=0;exitX=0;exitY=0.5;exitDx=0;exitDy=0;" edge="1" parent="1" source="111" target="109">
                    <mxGeometry relative="1" as="geometry">
                        <mxPoint x="-560" y="274" as="sourcePoint"/>
                    </mxGeometry>
                </mxCell>
                <mxCell id="111" value="&lt;font style=&quot;font-size: 15px;&quot;&gt;2&lt;/font&gt;" style="shape=internalStorage;whiteSpace=wrap;html=1;backgroundOutline=1;strokeColor=default;fontSize=8;dx=60;dy=0;" vertex="1" parent="1">
                    <mxGeometry x="-559" y="264" width="80" height="50" as="geometry"/>
                </mxCell>
                <mxCell id="112" value="" style="edgeStyle=none;html=1;fontSize=15;" edge="1" parent="1" source="113" target="115">
                    <mxGeometry relative="1" as="geometry"/>
                </mxCell>
                <mxCell id="113" value="&lt;font style=&quot;font-size: 15px;&quot;&gt;3&lt;/font&gt;" style="shape=internalStorage;whiteSpace=wrap;html=1;backgroundOutline=1;strokeColor=default;fontSize=8;dx=60;dy=0;" vertex="1" parent="1">
                    <mxGeometry x="-429" y="309" width="80" height="50" as="geometry"/>
                </mxCell>
                <mxCell id="114" value="" style="edgeStyle=none;html=1;fontSize=15;" edge="1" parent="1" source="115" target="116">
                    <mxGeometry relative="1" as="geometry"/>
                </mxCell>
                <mxCell id="115" value="&lt;font style=&quot;font-size: 15px;&quot;&gt;5&lt;/font&gt;" style="shape=internalStorage;whiteSpace=wrap;html=1;backgroundOutline=1;strokeColor=default;fontSize=8;dx=60;dy=0;" vertex="1" parent="1">
                    <mxGeometry x="-309" y="309" width="80" height="50" as="geometry"/>
                </mxCell>
                <mxCell id="116" value="&lt;font style=&quot;font-size: 15px;&quot;&gt;null&lt;/font&gt;" style="shape=internalStorage;whiteSpace=wrap;html=1;backgroundOutline=1;strokeColor=default;fontSize=8;dx=80;dy=0;" vertex="1" parent="1">
                    <mxGeometry x="-189" y="309" width="80" height="50" as="geometry"/>
                </mxCell>
                <mxCell id="117" value="" style="edgeStyle=none;html=1;fontSize=15;" edge="1" parent="1" source="118" target="109">
                    <mxGeometry relative="1" as="geometry"/>
                </mxCell>
                <mxCell id="118" value="&lt;font style=&quot;font-size: 15px; font-weight: normal;&quot;&gt;head&lt;/font&gt;" style="text;strokeColor=none;fillColor=none;html=1;fontSize=24;fontStyle=1;verticalAlign=middle;align=right;" vertex="1" parent="1">
                    <mxGeometry x="-759" y="314" width="51" height="40" as="geometry"/>
                </mxCell>
                <mxCell id="119" value="" style="edgeStyle=none;html=1;entryX=0.5;entryY=0;entryDx=0;entryDy=0;" edge="1" parent="1" source="120" target="109">
                    <mxGeometry relative="1" as="geometry"/>
                </mxCell>
                <mxCell id="120" value="&lt;font style=&quot;font-size: 15px; font-weight: normal;&quot;&gt;begin&lt;/font&gt;" style="text;strokeColor=none;fillColor=none;html=1;fontSize=24;fontStyle=1;verticalAlign=middle;align=center;" vertex="1" parent="1">
                    <mxGeometry x="-678" y="254" width="100" height="40" as="geometry"/>
                </mxCell>
                <mxCell id="121" value="" style="edgeStyle=none;html=1;entryX=1;entryY=0.5;entryDx=0;entryDy=0;" edge="1" parent="1" source="122" target="111">
                    <mxGeometry relative="1" as="geometry">
                        <mxPoint x="-509" y="114" as="targetPoint"/>
                    </mxGeometry>
                </mxCell>
                <mxCell id="122" value="&lt;font style=&quot;font-size: 15px; font-weight: normal;&quot;&gt;end&lt;br&gt;&lt;/font&gt;" style="text;strokeColor=none;fillColor=none;html=1;fontSize=24;fontStyle=1;verticalAlign=middle;align=center;" vertex="1" parent="1">
                    <mxGeometry x="-460" y="264" width="40" height="40" as="geometry"/>
                </mxCell>
                <mxCell id="123" value="end.next = head" style="text;html=1;align=center;verticalAlign=middle;resizable=0;points=[];autosize=1;strokeColor=none;fillColor=none;" vertex="1" parent="1">
                    <mxGeometry x="-563" y="359" width="110" height="30" as="geometry"/>
                </mxCell>
                <mxCell id="124" value="" style="edgeStyle=none;html=1;entryX=0;entryY=0.5;entryDx=0;entryDy=0;" edge="1" parent="1" source="125" target="129">
                    <mxGeometry relative="1" as="geometry"/>
                </mxCell>
                <mxCell id="125" value="&lt;font style=&quot;font-size: 15px;&quot;&gt;1&lt;/font&gt;" style="shape=internalStorage;whiteSpace=wrap;html=1;backgroundOutline=1;strokeColor=default;fontSize=8;dx=60;dy=0;" vertex="1" parent="1">
                    <mxGeometry x="-659" y="482" width="80" height="50" as="geometry"/>
                </mxCell>
                <mxCell id="126" value="" style="edgeStyle=none;html=1;entryX=0.5;entryY=0;entryDx=0;entryDy=0;exitX=0;exitY=0.5;exitDx=0;exitDy=0;" edge="1" parent="1" target="125" source="127">
                    <mxGeometry relative="1" as="geometry">
                        <mxPoint x="-550" y="447" as="sourcePoint"/>
                    </mxGeometry>
                </mxCell>
                <mxCell id="127" value="&lt;font style=&quot;font-size: 15px;&quot;&gt;2&lt;/font&gt;" style="shape=internalStorage;whiteSpace=wrap;html=1;backgroundOutline=1;strokeColor=default;fontSize=8;dx=60;dy=0;" vertex="1" parent="1">
                    <mxGeometry x="-559" y="437" width="80" height="50" as="geometry"/>
                </mxCell>
                <mxCell id="128" value="" style="edgeStyle=none;html=1;fontSize=15;" edge="1" parent="1" source="129" target="131">
                    <mxGeometry relative="1" as="geometry"/>
                </mxCell>
                <mxCell id="129" value="&lt;font style=&quot;font-size: 15px;&quot;&gt;3&lt;/font&gt;" style="shape=internalStorage;whiteSpace=wrap;html=1;backgroundOutline=1;strokeColor=default;fontSize=8;dx=60;dy=0;" vertex="1" parent="1">
                    <mxGeometry x="-419" y="482" width="80" height="50" as="geometry"/>
                </mxCell>
                <mxCell id="130" value="" style="edgeStyle=none;html=1;fontSize=15;" edge="1" parent="1" source="131" target="132">
                    <mxGeometry relative="1" as="geometry"/>
                </mxCell>
                <mxCell id="131" value="&lt;font style=&quot;font-size: 15px;&quot;&gt;5&lt;/font&gt;" style="shape=internalStorage;whiteSpace=wrap;html=1;backgroundOutline=1;strokeColor=default;fontSize=8;dx=60;dy=0;" vertex="1" parent="1">
                    <mxGeometry x="-299" y="482" width="80" height="50" as="geometry"/>
                </mxCell>
                <mxCell id="132" value="&lt;font style=&quot;font-size: 15px;&quot;&gt;null&lt;/font&gt;" style="shape=internalStorage;whiteSpace=wrap;html=1;backgroundOutline=1;strokeColor=default;fontSize=8;dx=80;dy=0;" vertex="1" parent="1">
                    <mxGeometry x="-179" y="482" width="80" height="50" as="geometry"/>
                </mxCell>
                <mxCell id="133" value="" style="edgeStyle=none;html=1;fontSize=15;entryX=0;entryY=0.5;entryDx=0;entryDy=0;" edge="1" parent="1" source="134" target="127">
                    <mxGeometry relative="1" as="geometry"/>
                </mxCell>
                <mxCell id="134" value="&lt;font style=&quot;font-size: 15px; font-weight: normal;&quot;&gt;head&lt;/font&gt;" style="text;strokeColor=none;fillColor=none;html=1;fontSize=24;fontStyle=1;verticalAlign=middle;align=right;" vertex="1" parent="1">
                    <mxGeometry x="-750" y="442" width="51" height="40" as="geometry"/>
                </mxCell>
                <mxCell id="135" value="" style="edgeStyle=none;html=1;entryX=0;entryY=0.5;entryDx=0;entryDy=0;" edge="1" parent="1" source="136" target="125">
                    <mxGeometry relative="1" as="geometry"/>
                </mxCell>
                <mxCell id="136" value="&lt;font style=&quot;font-size: 15px; font-weight: normal;&quot;&gt;begin&lt;/font&gt;" style="text;strokeColor=none;fillColor=none;html=1;fontSize=24;fontStyle=1;verticalAlign=middle;align=center;" vertex="1" parent="1">
                    <mxGeometry x="-750" y="487" width="65.5" height="40" as="geometry"/>
                </mxCell>
                <mxCell id="137" value="" style="edgeStyle=none;html=1;entryX=1;entryY=0.5;entryDx=0;entryDy=0;" edge="1" parent="1" source="138" target="127">
                    <mxGeometry relative="1" as="geometry">
                        <mxPoint x="-499" y="287" as="targetPoint"/>
                    </mxGeometry>
                </mxCell>
                <mxCell id="138" value="&lt;font style=&quot;font-size: 15px; font-weight: normal;&quot;&gt;end&lt;br&gt;&lt;/font&gt;" style="text;strokeColor=none;fillColor=none;html=1;fontSize=24;fontStyle=1;verticalAlign=middle;align=center;" vertex="1" parent="1">
                    <mxGeometry x="-460" y="437" width="40" height="40" as="geometry"/>
                </mxCell>
                <mxCell id="139" value="head = end" style="text;html=1;align=center;verticalAlign=middle;resizable=0;points=[];autosize=1;strokeColor=none;fillColor=none;" vertex="1" parent="1">
                    <mxGeometry x="-538" y="532" width="80" height="30" as="geometry"/>
                </mxCell>
                <mxCell id="143" value="" style="edgeStyle=none;html=1;entryX=0;entryY=0.5;entryDx=0;entryDy=0;" edge="1" parent="1" source="144" target="148">
                    <mxGeometry relative="1" as="geometry"/>
                </mxCell>
                <mxCell id="144" value="&lt;font style=&quot;font-size: 15px;&quot;&gt;1&lt;/font&gt;" style="shape=internalStorage;whiteSpace=wrap;html=1;backgroundOutline=1;strokeColor=default;fontSize=8;dx=60;dy=0;" vertex="1" parent="1">
                    <mxGeometry x="-659" y="652" width="80" height="50" as="geometry"/>
                </mxCell>
                <mxCell id="145" value="" style="edgeStyle=none;html=1;entryX=0.5;entryY=0;entryDx=0;entryDy=0;exitX=0;exitY=0.5;exitDx=0;exitDy=0;" edge="1" parent="1" source="146" target="144">
                    <mxGeometry relative="1" as="geometry">
                        <mxPoint x="-550" y="617" as="sourcePoint"/>
                    </mxGeometry>
                </mxCell>
                <mxCell id="146" value="&lt;font style=&quot;font-size: 15px;&quot;&gt;2&lt;/font&gt;" style="shape=internalStorage;whiteSpace=wrap;html=1;backgroundOutline=1;strokeColor=default;fontSize=8;dx=60;dy=0;" vertex="1" parent="1">
                    <mxGeometry x="-559" y="607" width="80" height="50" as="geometry"/>
                </mxCell>
                <mxCell id="147" value="" style="edgeStyle=none;html=1;fontSize=15;" edge="1" parent="1" source="148" target="150">
                    <mxGeometry relative="1" as="geometry"/>
                </mxCell>
                <mxCell id="148" value="&lt;font style=&quot;font-size: 15px;&quot;&gt;3&lt;/font&gt;" style="shape=internalStorage;whiteSpace=wrap;html=1;backgroundOutline=1;strokeColor=default;fontSize=8;dx=60;dy=0;" vertex="1" parent="1">
                    <mxGeometry x="-419" y="652" width="80" height="50" as="geometry"/>
                </mxCell>
                <mxCell id="149" value="" style="edgeStyle=none;html=1;fontSize=15;" edge="1" parent="1" source="150" target="151">
                    <mxGeometry relative="1" as="geometry"/>
                </mxCell>
                <mxCell id="150" value="&lt;font style=&quot;font-size: 15px;&quot;&gt;5&lt;/font&gt;" style="shape=internalStorage;whiteSpace=wrap;html=1;backgroundOutline=1;strokeColor=default;fontSize=8;dx=60;dy=0;" vertex="1" parent="1">
                    <mxGeometry x="-299" y="652" width="80" height="50" as="geometry"/>
                </mxCell>
                <mxCell id="151" value="&lt;font style=&quot;font-size: 15px;&quot;&gt;null&lt;/font&gt;" style="shape=internalStorage;whiteSpace=wrap;html=1;backgroundOutline=1;strokeColor=default;fontSize=8;dx=80;dy=0;" vertex="1" parent="1">
                    <mxGeometry x="-179" y="652" width="80" height="50" as="geometry"/>
                </mxCell>
                <mxCell id="152" value="" style="edgeStyle=none;html=1;fontSize=15;entryX=0;entryY=0.5;entryDx=0;entryDy=0;" edge="1" parent="1" source="153" target="146">
                    <mxGeometry relative="1" as="geometry"/>
                </mxCell>
                <mxCell id="153" value="&lt;font style=&quot;font-size: 15px; font-weight: normal;&quot;&gt;head&lt;/font&gt;" style="text;strokeColor=none;fillColor=none;html=1;fontSize=24;fontStyle=1;verticalAlign=middle;align=right;" vertex="1" parent="1">
                    <mxGeometry x="-750" y="612" width="51" height="40" as="geometry"/>
                </mxCell>
                <mxCell id="154" value="" style="edgeStyle=none;html=1;entryX=0;entryY=0.5;entryDx=0;entryDy=0;" edge="1" parent="1" source="155" target="144">
                    <mxGeometry relative="1" as="geometry"/>
                </mxCell>
                <mxCell id="155" value="&lt;font style=&quot;font-size: 15px; font-weight: normal;&quot;&gt;begin&lt;/font&gt;" style="text;strokeColor=none;fillColor=none;html=1;fontSize=24;fontStyle=1;verticalAlign=middle;align=center;" vertex="1" parent="1">
                    <mxGeometry x="-750" y="657" width="65.5" height="40" as="geometry"/>
                </mxCell>
                <mxCell id="156" value="" style="edgeStyle=none;html=1;entryX=0.5;entryY=0;entryDx=0;entryDy=0;" edge="1" parent="1" source="157" target="148">
                    <mxGeometry relative="1" as="geometry">
                        <mxPoint x="-499" y="457" as="targetPoint"/>
                    </mxGeometry>
                </mxCell>
                <mxCell id="157" value="&lt;font style=&quot;font-size: 15px; font-weight: normal;&quot;&gt;end&lt;br&gt;&lt;/font&gt;" style="text;strokeColor=none;fillColor=none;html=1;fontSize=24;fontStyle=1;verticalAlign=middle;align=center;" vertex="1" parent="1">
                    <mxGeometry x="-439" y="607" width="40" height="40" as="geometry"/>
                </mxCell>
                <mxCell id="158" value="end = begin.next" style="text;html=1;align=center;verticalAlign=middle;resizable=0;points=[];autosize=1;strokeColor=none;fillColor=none;" vertex="1" parent="1">
                    <mxGeometry x="-553" y="702" width="110" height="30" as="geometry"/>
                </mxCell>
            </root>
        </mxGraphModel>
    </diagram>
</mxfile>